<svg width="13" height="16" viewBox="0 0 13 16" fill="none" xmlns="http://www.w3.org/2000/svg">
<path d="M6.4 16C5.13311 16 4.01911 15.746 3.05802 15.2381C2.09693 14.7229 1.34699 14.0009 0.808191 13.0721C0.269397 12.1433 0 11.0512 0 9.79592V1.51809C0 0.689954 0.668167 0.0169435 1.49628 0.010963V0.010963C2.3329 0.00492117 3.01433 0.681452 3.01433 1.51809V9.77415C3.01433 10.2893 3.10171 10.7574 3.27645 11.1782C3.45119 11.5991 3.69147 11.9619 3.99727 12.2667C4.31035 12.5714 4.67076 12.8073 5.0785 12.9741C5.49352 13.1338 5.93402 13.2136 6.4 13.2136C6.88055 13.2136 7.32469 13.1302 7.73242 12.9633C8.14744 12.7964 8.50785 12.5605 8.81365 12.2558C9.11945 11.951 9.35609 11.5882 9.52355 11.1673C9.60554 10.9699 9.66829 10.7628 9.71181 10.5462C9.81354 10.0398 9.73215 9.51937 9.62596 9.0139L8.30745 2.7373C8.01104 1.32633 9.0877 0 10.5295 0V0C11.7835 0 12.8 1.01655 12.8 2.27053V9.79592C12.8 11.0512 12.5306 12.1433 11.9918 13.0721C11.453 14.0009 10.7031 14.7229 9.74198 15.2381C8.78089 15.746 7.66689 16 6.4 16Z" fill="#FF7F3F"/>
</svg>
