<svg width="281" height="342" viewBox="0 0 281 342" fill="none" xmlns="http://www.w3.org/2000/svg">
<path d="M140.482 340.017C216.517 340.017 278.155 278.365 278.155 202.313C278.155 126.261 216.517 64.6085 140.482 64.6085C64.4477 64.6085 2.80957 126.261 2.80957 202.313C2.80957 278.365 64.4477 340.017 140.482 340.017Z" fill="white"/>
<path d="M140.089 340.901C3.87593 344.031 0.88916 279.303 0.88916 202.312C0.88916 125.324 63.5105 62.6879 140.482 62.6879C217.454 62.6879 280.076 125.324 280.076 202.312C280.076 279.303 217.061 340.901 140.089 340.901ZM140.482 66.5298C65.6279 66.5298 5.99072 127.452 4.73016 202.312C3.55769 271.942 77.5101 358.829 140.482 338.097C174.252 300.896 269.73 260.829 276.234 202.312C284.506 127.9 215.337 66.5298 140.482 66.5298V66.5298Z" fill="#3F3D56"/>
<path d="M121.701 273.982C119.323 273.982 116.979 273.428 114.852 272.364C112.726 271.3 110.877 269.756 109.451 267.853L71.8914 217.762C70.6838 216.153 69.8049 214.321 69.305 212.372C68.8052 210.423 68.6941 208.395 68.9782 206.403C69.2623 204.411 69.9359 202.495 70.9607 200.763C71.9855 199.032 73.3413 197.519 74.9506 196.312C76.56 195.105 78.3914 194.227 80.3401 193.728C82.2889 193.228 84.3169 193.118 86.3082 193.403C88.2996 193.689 90.2153 194.363 91.9459 195.389C93.6764 196.415 95.188 197.772 96.3941 199.382L120.967 232.15L184.078 137.463C186.332 134.085 189.835 131.74 193.816 130.945C197.798 130.15 201.933 130.968 205.311 133.221C208.689 135.474 211.035 138.976 211.832 142.958C212.63 146.94 211.813 151.076 209.563 154.457L134.444 267.16C133.086 269.198 131.258 270.881 129.115 272.067C126.972 273.253 124.575 273.908 122.127 273.977C121.985 273.979 121.843 273.982 121.701 273.982Z" fill="#F2F2F2"/>
<path d="M228.396 331.285H220.336L216.501 300.184L228.399 300.185L228.396 331.285Z" fill="#FFB6B6"/>
<path d="M228.681 339.697L203.892 339.696V339.383C203.892 336.823 204.908 334.369 206.718 332.559C208.527 330.749 210.981 329.732 213.54 329.732H213.541L218.069 326.296L226.518 329.732L228.682 329.732L228.681 339.697Z" fill="#2F2E41"/>
<path d="M193.35 292.74L185.904 295.829L170.45 268.57L181.44 264.012L193.35 292.74Z" fill="#FFB6B6"/>
<path d="M196.834 300.402L173.935 309.899L173.815 309.61C172.835 307.245 172.834 304.588 173.812 302.223C174.79 299.858 176.668 297.978 179.031 296.998L179.032 296.998L181.899 292.089L191.019 292.026L193.018 291.197L196.834 300.402Z" fill="#2F2E41"/>
<path d="M237.614 154.364L180.405 160.343L172.752 186.123L146.25 228.723C146.25 228.723 164.743 259.856 163.006 259.517C161.27 259.178 164.741 267.664 167.172 267.171C169.603 266.679 172.131 272.212 170.45 273.196C168.769 274.18 175.512 282.498 175.512 282.498L185.817 273.247C188.009 256.709 185.361 241.99 175.925 229.823L205.45 197.941L211.049 195.618L215.493 313.922L231.93 314.192C236.466 290.855 238.744 269.851 235.199 254.867C235.199 254.867 235.708 209.854 237.652 210.346C239.596 210.838 237.948 204.974 237.948 204.974C237.948 204.974 236.246 199.98 238.337 197.908C240.429 195.836 239.123 183.65 239.123 183.65C242.579 172.118 241.539 162.596 237.614 154.364Z" fill="#2F2E41"/>
<path d="M193.626 59.2254L209.442 55.1261L216.825 44.9414L234.357 47.0973L238.089 60.9893L250.571 68.2361C250.571 68.2361 243.672 141.222 245.313 145.23C246.954 149.237 252.838 148.906 247.813 154.073C242.788 159.239 242.123 157.158 243.289 162.782C244.455 168.407 252.955 174.359 243.289 174.3C233.622 174.241 175.295 173.407 176.961 166.74C178.628 160.072 178.602 161.765 181.114 157.585C183.627 153.405 185.319 155.741 184.473 149.572C183.627 143.403 184.461 139.236 184.461 135.902C184.461 132.568 187.252 102.274 187.252 102.274L193.626 59.2254Z" fill="#E6E6E6"/>
<path d="M225.547 43.059C235.808 43.059 244.127 34.7387 244.127 24.4752C244.127 14.2116 235.808 5.89136 225.547 5.89136C215.286 5.89136 206.968 14.2116 206.968 24.4752C206.968 34.7387 215.286 43.059 225.547 43.059Z" fill="#FFB6B6"/>
<path d="M206.079 13.2282C207.71 14.5468 207.337 20.9599 209.155 19.9146C210.973 18.8693 211.351 16.9974 213.444 16.9778C215.151 17.072 216.76 17.8007 217.958 19.0207C218.18 19.2221 218.392 19.4333 218.598 19.642C218.786 19.576 218.972 19.5162 219.168 19.4671C220.636 19.1086 222.186 19.3269 223.498 20.0769C222.286 20.1635 221.132 20.6288 220.2 21.407C220.599 21.8549 221.005 22.3053 221.431 22.7215C224.989 26.2094 232.285 22.495 237.191 21.6569C233.105 26.1192 233.911 28.6102 234.927 34.5745L234.931 34.9003C235.14 33.5249 239.544 33.5934 238.818 35.4185C237.906 37.2215 236.765 38.8991 235.424 40.4097C241.425 36.2515 246.269 30.5197 247.34 23.5959C247.56 22.1401 247.988 20.6548 247.574 19.2354C247.398 18.5178 246.989 17.8787 246.411 17.418C245.833 16.9574 245.119 16.7011 244.381 16.6892C245.049 14.5654 245.13 12.3 244.614 10.1339C244.098 7.96791 243.005 5.98218 241.451 4.38789C239.897 2.79359 237.94 1.6503 235.788 1.07958C233.636 0.508859 231.37 0.532034 229.231 1.14664C227.279 1.84046 225.375 2.66235 223.532 3.60696C221.671 4.55523 219.565 4.91202 217.496 4.62952C216.207 4.36319 214.901 3.69564 213.638 4.07361C212.174 4.51277 211.545 6.05926 210.958 7.55217C212.059 7.95453 213.016 8.67622 213.705 9.62502C212.566 9.20471 211.324 9.15423 210.155 9.48075C210.134 9.48454 210.113 9.49028 210.092 9.4979C208.767 11.8737 208.69 12.4563 206.079 13.2282Z" fill="#2F2E41"/>
<path d="M212.205 50.148C202.689 49.3817 194 56.6612 190.038 65.3496C186.076 74.038 185.817 83.8943 185.625 93.4417L185.027 123.119C184.938 127.511 184.85 131.903 184.631 136.291C184.519 140.559 183.982 144.807 183.029 148.969C181.088 156.607 176.82 163.414 172.615 170.079C183.382 173.334 194.333 175.95 205.409 177.913C210.94 160.017 216.535 141.608 215.175 122.926C214.456 113.041 211.797 103.389 210.787 93.5292C209.356 79.5646 211.253 65.4971 213.146 51.5876" fill="#3F3D56"/>
<path d="M235.305 51.8171C244.731 53.3331 251.444 62.4683 253.229 71.8492C255.015 81.23 252.927 90.866 250.847 100.186C248.692 109.843 246.537 119.5 244.382 129.157C243.425 133.444 242.468 137.732 241.639 142.045C240.834 146.235 244.207 151.61 244.245 155.877C244.317 163.757 242.787 170.248 245.29 177.721C234.057 178.326 222.799 178.266 211.574 177.541C210.449 158.844 209.385 139.632 215.142 121.808C218.187 112.376 223.061 103.632 226.384 94.2942C231.089 81.069 232.586 66.9534 234.05 52.9921" fill="#3F3D56"/>
<path d="M241.589 186.545C240.889 185.324 240.692 183.879 241.042 182.516C241.391 181.153 242.258 179.981 243.458 179.247C243.704 179.102 243.962 178.978 244.229 178.875L243.027 137.94L256.048 134.625L251.083 182.316C251.422 183.456 251.375 184.676 250.949 185.787C250.522 186.897 249.74 187.835 248.725 188.454C248.144 188.801 247.5 189.029 246.83 189.127C246.161 189.225 245.478 189.19 244.822 189.024C244.166 188.858 243.549 188.565 243.007 188.16C242.464 187.756 242.006 187.249 241.66 186.667C241.635 186.627 241.612 186.586 241.589 186.545Z" fill="#FFB6B6"/>
<path d="M240.638 68.1709C240.638 68.1709 249.727 60.4831 257.375 75.8546C265.023 91.2262 260.749 126.343 259.672 128.217C258.596 130.091 257.939 127.48 258.529 132.476C259.008 136.539 256.157 136.031 257.18 136.898C259.876 139.184 252.325 139.445 256.203 141.459C260.082 143.474 242.723 143.851 242.723 143.851C242.723 143.851 240.623 142.351 242.081 136.695C242.9 133.519 244.951 132.356 242.764 130.886C240.577 129.417 245.023 124.872 245.026 123.875C245.029 122.878 238.093 101.069 238.093 101.069L240.638 68.1709Z" fill="#3F3D56"/>
<path d="M165.429 257.536C163.052 257.536 160.707 256.982 158.581 255.918C156.455 254.855 154.605 253.31 153.179 251.408L115.62 201.316C114.412 199.707 113.533 197.876 113.034 195.927C112.534 193.978 112.423 191.949 112.707 189.957C112.991 187.965 113.665 186.049 114.689 184.318C115.714 182.586 117.07 181.074 118.679 179.866C120.289 178.659 122.12 177.781 124.069 177.282C126.017 176.783 128.045 176.673 130.037 176.958C132.028 177.243 133.944 177.918 135.674 178.943C137.405 179.969 138.917 181.326 140.123 182.936L164.695 215.705L227.807 121.017C228.922 119.343 230.356 117.906 232.027 116.786C233.698 115.667 235.573 114.888 237.546 114.493C239.518 114.099 241.548 114.097 243.521 114.487C245.494 114.878 247.371 115.653 249.044 116.769C250.717 117.884 252.155 119.319 253.274 120.99C254.393 122.662 255.172 124.537 255.566 126.51C255.96 128.482 255.963 130.513 255.572 132.487C255.182 134.46 254.407 136.337 253.291 138.011L178.173 250.714C176.814 252.753 174.986 254.435 172.843 255.621C170.7 256.807 168.304 257.462 165.856 257.531C165.713 257.533 165.571 257.536 165.429 257.536Z" fill="#FF7F3F"/>
<path d="M194.06 179.434C194.826 178.254 195.102 176.822 194.829 175.442C194.556 174.062 193.755 172.843 192.597 172.045C192.359 171.886 192.108 171.747 191.847 171.63L195.309 130.824L182.492 126.794L184.814 174.687C184.412 175.806 184.391 177.028 184.756 178.16C185.121 179.292 185.849 180.272 186.829 180.946C187.39 181.324 188.02 181.588 188.684 181.723C189.347 181.858 190.03 181.86 190.694 181.731C191.359 181.602 191.991 181.343 192.555 180.969C193.119 180.595 193.604 180.114 193.982 179.552C194.009 179.513 194.035 179.474 194.06 179.434Z" fill="#FFB6B6"/>
<path d="M201.561 61.3778C201.561 61.3778 192.911 53.1993 184.425 68.1246C175.94 83.05 178.267 118.349 179.238 120.28C180.21 122.211 181.01 119.64 180.145 124.596C179.442 128.626 182.317 128.276 181.248 129.085C178.429 131.219 185.955 131.897 181.971 133.694C177.987 135.491 195.298 136.827 195.298 136.827C195.298 136.827 197.478 135.445 196.334 129.718C195.692 126.501 193.709 125.227 195.974 123.88C198.239 122.533 194.05 117.75 194.102 116.754C194.154 115.758 202.285 94.3666 202.285 94.3666L201.561 61.3778Z" fill="#3F3D56"/>
</svg>
