<svg width="32" height="32" viewBox="0 0 32 32" fill="none" xmlns="http://www.w3.org/2000/svg">
<path d="M16.5 32C14.0256 32 11.8498 31.4921 9.9727 30.4762C8.09556 29.4458 6.63083 28.0018 5.5785 26.1442C4.52617 24.2866 4 22.1025 4 19.5918V2.96554C4 1.34828 5.3047 0.0338893 6.92192 0.0219298V0.0219298C8.55613 0.00984465 9.88737 1.33127 9.88737 2.96553V19.5483C9.88737 20.5787 10.058 21.5147 10.3993 22.3565C10.7406 23.1982 11.2099 23.9238 11.8072 24.5333C12.4187 25.1429 13.1226 25.6145 13.9189 25.9483C14.7295 26.2676 15.5899 26.4272 16.5 26.4272C17.4386 26.4272 18.306 26.2603 19.1024 25.9265C19.913 25.5927 20.6169 25.1211 21.2142 24.5116C21.8114 23.902 22.2736 23.1764 22.6007 22.3347C22.8251 21.7811 22.9758 21.1899 23.0526 20.5611C23.1345 19.891 23.0443 19.2151 22.9086 18.5539L20.1979 5.33998C19.6322 2.58254 21.7387 0 24.5536 0V0C27.0093 0 29 1.99073 29 4.44643V19.5918C29 22.1025 28.4738 24.2866 27.4215 26.1442C26.3692 28.0018 24.9044 29.4458 23.0273 30.4762C21.1502 31.4921 18.9744 32 16.5 32Z" fill="#FF7F3F"/>
</svg>
